# xmcd
#
# Track frame offsets:
#	150
#	12295
#	31215
#	47162
#	67645
#	81732
#	98550
#	121745
#	146305
#	161927
#
# Disc length: 2411 seconds
#
# Revision: 0
# Processed by: cddbd v1.4PL0 Copyright (c) Steve Scherf et al.
# Submitted via: audiograbber 1.80.04
#
DISCID=7809690a
DTITLE=Eddie Ceballos - Electric Bluesland
DYEAR=1900
DGENRE=Blues
TTITLE0=She's Loose
TTITLE1=Spanish Blue
TTITLE2=Electric Bluesland
TTITLE3=Dirty Grave Water
TTITLE4=Bumble Bee
TTITLE5=Vineland Bluesland
TTITLE6=Sitting Here Thinking
TTITLE7=I'm You Carpet Man
TTITLE8=Let's Go
TTITLE9=She Don't Love Me
EXTD=
EXTT0=
EXTT1=
EXTT2=
EXTT3=
EXTT4=
EXTT5=
EXTT6=
EXTT7=
EXTT8=
EXTT9=
PLAYORDER=
